<svg xmlns="http://www.w3.org/2000/svg" version="1.1" xmlns:xlink="http://www.w3.org/1999/xlink" xmlns:svgjs="http://svgjs.dev/svgjs" width="1440" height="560" preserveAspectRatio="none" viewBox="0 0 1440 560"><g mask="url(&quot;#SvgjsMask1000&quot;)" fill="none"><rect width="1440" height="560" x="0" y="0" fill="#1e3266"></rect><path d="M1512 560L0 560 L0 283.99Q60.27 272.26, 72 332.53Q118.91 259.44, 192 306.35Q218.47 260.82, 264 287.29Q348.97 252.26, 384 337.23Q454.99 288.22, 504 359.21Q524.81 260.02, 624 280.83Q697.3 234.13, 744 307.43Q821.82 265.25, 864 343.06Q873.75 280.81, 936 290.55Q979.94 262.5, 1008 306.44Q1062.39 288.83, 1080 343.22Q1107.95 299.18, 1152 327.13Q1235.46 290.6, 1272 374.06Q1288.92 270.99, 1392 287.91Q1462.82 238.73, 1512 309.54z" fill="#182f5d"></path><path d="M1512 560L0 560 L0 412.21Q51.19 391.4, 72 442.59Q85.13 383.71, 144 396.84Q182.39 315.23, 264 353.61Q313.68 331.29, 336 380.97Q377.54 350.51, 408 392.05Q471.61 383.66, 480 447.28Q505.46 400.74, 552 426.19Q555.54 357.73, 624 361.26Q683.8 349.06, 696 408.86Q774.65 367.51, 816 446.17Q825.97 384.14, 888 394.11Q914.53 348.64, 960 375.17Q1016.88 360.05, 1032 416.92Q1073.67 386.59, 1104 428.26Q1145.35 397.61, 1176 438.95Q1181.67 372.63, 1248 378.3Q1275.58 333.88, 1320 361.46Q1405.12 326.58, 1440 411.7Q1492.3 392, 1512 444.3z" fill="#25467d"></path><path d="M1488 560L0 560 L0 504.33Q-1.82 430.5, 72 428.68Q119.17 403.85, 144 451.01Q195.02 430.03, 216 481.05Q247.65 392.7, 336 424.35Q380.12 396.47, 408 440.58Q467.14 427.72, 480 486.85Q501.17 436.02, 552 457.2Q595.96 381.16, 672 425.13Q730.77 411.9, 744 470.67Q773.15 427.82, 816 456.97Q860.43 381.4, 936 425.84Q1016.64 386.49, 1056 467.13Q1131.72 422.85, 1176 498.57Q1186.69 437.26, 1248 447.95Q1301.89 381.84, 1368 435.73Q1448.14 395.88, 1488 476.02z" fill="#356cb1"></path><path d="M1488 560L0 560 L0 503.11Q57.76 440.88, 120 498.64Q177.53 484.17, 192 541.7Q245.09 522.79, 264 575.87Q264.99 504.86, 336 505.85Q364.99 462.84, 408 491.82Q472.26 484.08, 480 548.33Q531.17 527.5, 552 578.68Q581.69 536.37, 624 566.06Q678.73 500.79, 744 555.52Q787.39 478.91, 864 522.31Q910.83 449.13, 984 495.96Q1073.12 465.08, 1104 554.2Q1141.5 471.7, 1224 509.2Q1274.65 487.85, 1296 538.5Q1350.4 520.9, 1368 575.31Q1415.85 503.15, 1488 551z" fill="white"></path></g><defs><mask id="SvgjsMask1000"><rect width="1440" height="560" fill="#ffffff"></rect></mask></defs></svg>