<svg xmlns="http://www.w3.org/2000/svg" version="1.1" xmlns:xlink="http://www.w3.org/1999/xlink" xmlns:svgjs="http://svgjs.dev/svgjs" viewBox="0 0 1422 800" opacity="1"><g stroke-width="2.5" stroke="fff" fill="none" stroke-linecap="round"><line x1="76" y1="0" x2="0" y2="76"></line><line x1="76" y1="0" x2="152" y2="76"></line><line x1="152" y1="0" x2="228" y2="76"></line><line x1="304" y1="0" x2="228" y2="76"></line><line x1="380" y1="0" x2="304" y2="76"></line><line x1="380" y1="0" x2="456" y2="76"></line><line x1="456" y1="0" x2="532" y2="76"></line><line x1="532" y1="0" x2="608" y2="76"></line><line x1="608" y1="0" x2="684" y2="76"></line><line x1="684" y1="0" x2="760" y2="76"></line><line x1="760" y1="0" x2="836" y2="76"></line><line x1="912" y1="0" x2="836" y2="76"></line><line x1="912" y1="0" x2="988" y2="76"></line><line x1="988" y1="0" x2="1064" y2="76"></line><line x1="1064" y1="0" x2="1140" y2="76"></line><line x1="1140" y1="0" x2="1216" y2="76"></line><line x1="1292" y1="0" x2="1216" y2="76"></line><line x1="1368" y1="0" x2="1292" y2="76"></line><line x1="1368" y1="0" x2="1444" y2="76"></line><line x1="0" y1="76" x2="76" y2="152"></line><line x1="152" y1="76" x2="76" y2="152"></line><line x1="152" y1="76" x2="228" y2="152"></line><line x1="228" y1="76" x2="304" y2="152"></line><line x1="304" y1="76" x2="380" y2="152"></line><line x1="456" y1="76" x2="380" y2="152"></line><line x1="456" y1="76" x2="532" y2="152"></line><line x1="608" y1="76" x2="532" y2="152"></line><line x1="608" y1="76" x2="684" y2="152"></line><line x1="684" y1="76" x2="760" y2="152"></line><line x1="760" y1="76" x2="836" y2="152"></line><line x1="836" y1="76" x2="912" y2="152"></line><line x1="912" y1="76" x2="988" y2="152"></line><line x1="988" y1="76" x2="1064" y2="152"></line><line x1="1140" y1="76" x2="1064" y2="152"></line><line x1="1216" y1="76" x2="1140" y2="152"></line><line x1="1216" y1="76" x2="1292" y2="152"></line><line x1="1292" y1="76" x2="1368" y2="152"></line><line x1="1368" y1="76" x2="1444" y2="152"></line><line x1="76" y1="152" x2="0" y2="228"></line><line x1="76" y1="152" x2="152" y2="228"></line><line x1="228" y1="152" x2="152" y2="228"></line><line x1="304" y1="152" x2="228" y2="228"></line><line x1="304" y1="152" x2="380" y2="228"></line><line x1="380" y1="152" x2="456" y2="228"></line><line x1="456" y1="152" x2="532" y2="228"></line><line x1="532" y1="152" x2="608" y2="228"></line><line x1="608" y1="152" x2="684" y2="228"></line><line x1="684" y1="152" x2="760" y2="228"></line><line x1="760" y1="152" x2="836" y2="228"></line><line x1="912" y1="152" x2="836" y2="228"></line><line x1="912" y1="152" x2="988" y2="228"></line><line x1="988" y1="152" x2="1064" y2="228"></line><line x1="1140" y1="152" x2="1064" y2="228"></line><line x1="1140" y1="152" x2="1216" y2="228"></line><line x1="1216" y1="152" x2="1292" y2="228"></line><line x1="1292" y1="152" x2="1368" y2="228"></line><line x1="1368" y1="152" x2="1444" y2="228"></line><line x1="0" y1="228" x2="76" y2="304"></line><line x1="152" y1="228" x2="76" y2="304"></line><line x1="152" y1="228" x2="228" y2="304"></line><line x1="228" y1="228" x2="304" y2="304"></line><line x1="304" y1="228" x2="380" y2="304"></line><line x1="380" y1="228" x2="456" y2="304"></line><line x1="456" y1="228" x2="532" y2="304"></line><line x1="608" y1="228" x2="532" y2="304"></line><line x1="608" y1="228" x2="684" y2="304"></line><line x1="760" y1="228" x2="684" y2="304"></line><line x1="760" y1="228" x2="836" y2="304"></line><line x1="836" y1="228" x2="912" y2="304"></line><line x1="912" y1="228" x2="988" y2="304"></line><line x1="1064" y1="228" x2="988" y2="304"></line><line x1="1064" y1="228" x2="1140" y2="304"></line><line x1="1140" y1="228" x2="1216" y2="304"></line><line x1="1216" y1="228" x2="1292" y2="304"></line><line x1="1292" y1="228" x2="1368" y2="304"></line><line x1="1368" y1="228" x2="1444" y2="304"></line><line x1="0" y1="304" x2="76" y2="380"></line><line x1="152" y1="304" x2="76" y2="380"></line><line x1="152" y1="304" x2="228" y2="380"></line><line x1="304" y1="304" x2="228" y2="380"></line><line x1="304" y1="304" x2="380" y2="380"></line><line x1="380" y1="304" x2="456" y2="380"></line><line x1="456" y1="304" x2="532" y2="380"></line><line x1="608" y1="304" x2="532" y2="380"></line><line x1="684" y1="304" x2="608" y2="380"></line><line x1="684" y1="304" x2="760" y2="380"></line><line x1="760" y1="304" x2="836" y2="380"></line><line x1="836" y1="304" x2="912" y2="380"></line><line x1="988" y1="304" x2="912" y2="380"></line><line x1="988" y1="304" x2="1064" y2="380"></line><line x1="1140" y1="304" x2="1064" y2="380"></line><line x1="1216" y1="304" x2="1140" y2="380"></line><line x1="1216" y1="304" x2="1292" y2="380"></line><line x1="1368" y1="304" x2="1292" y2="380"></line><line x1="1368" y1="304" x2="1444" y2="380"></line><line x1="0" y1="380" x2="76" y2="456"></line><line x1="152" y1="380" x2="76" y2="456"></line><line x1="152" y1="380" x2="228" y2="456"></line><line x1="304" y1="380" x2="228" y2="456"></line><line x1="304" y1="380" x2="380" y2="456"></line><line x1="380" y1="380" x2="456" y2="456"></line><line x1="532" y1="380" x2="456" y2="456"></line><line x1="608" y1="380" x2="532" y2="456"></line><line x1="608" y1="380" x2="684" y2="456"></line><line x1="684" y1="380" x2="760" y2="456"></line><line x1="836" y1="380" x2="760" y2="456"></line><line x1="912" y1="380" x2="836" y2="456"></line><line x1="912" y1="380" x2="988" y2="456"></line><line x1="988" y1="380" x2="1064" y2="456"></line><line x1="1064" y1="380" x2="1140" y2="456"></line><line x1="1140" y1="380" x2="1216" y2="456"></line><line x1="1292" y1="380" x2="1216" y2="456"></line><line x1="1292" y1="380" x2="1368" y2="456"></line><line x1="1368" y1="380" x2="1444" y2="456"></line><line x1="0" y1="456" x2="76" y2="532"></line><line x1="76" y1="456" x2="152" y2="532"></line><line x1="228" y1="456" x2="152" y2="532"></line><line x1="228" y1="456" x2="304" y2="532"></line><line x1="304" y1="456" x2="380" y2="532"></line><line x1="456" y1="456" x2="380" y2="532"></line><line x1="532" y1="456" x2="456" y2="532"></line><line x1="532" y1="456" x2="608" y2="532"></line><line x1="608" y1="456" x2="684" y2="532"></line><line x1="684" y1="456" x2="760" y2="532"></line><line x1="760" y1="456" x2="836" y2="532"></line><line x1="912" y1="456" x2="836" y2="532"></line><line x1="912" y1="456" x2="988" y2="532"></line><line x1="1064" y1="456" x2="988" y2="532"></line><line x1="1064" y1="456" x2="1140" y2="532"></line><line x1="1140" y1="456" x2="1216" y2="532"></line><line x1="1292" y1="456" x2="1216" y2="532"></line><line x1="1292" y1="456" x2="1368" y2="532"></line><line x1="1368" y1="456" x2="1444" y2="532"></line><line x1="0" y1="532" x2="76" y2="608"></line><line x1="76" y1="532" x2="152" y2="608"></line><line x1="152" y1="532" x2="228" y2="608"></line><line x1="228" y1="532" x2="304" y2="608"></line><line x1="304" y1="532" x2="380" y2="608"></line><line x1="380" y1="532" x2="456" y2="608"></line><line x1="456" y1="532" x2="532" y2="608"></line><line x1="532" y1="532" x2="608" y2="608"></line><line x1="608" y1="532" x2="684" y2="608"></line><line x1="684" y1="532" x2="760" y2="608"></line><line x1="760" y1="532" x2="836" y2="608"></line><line x1="912" y1="532" x2="836" y2="608"></line><line x1="912" y1="532" x2="988" y2="608"></line><line x1="988" y1="532" x2="1064" y2="608"></line><line x1="1140" y1="532" x2="1064" y2="608"></line><line x1="1216" y1="532" x2="1140" y2="608"></line><line x1="1216" y1="532" x2="1292" y2="608"></line><line x1="1368" y1="532" x2="1292" y2="608"></line><line x1="1368" y1="532" x2="1444" y2="608"></line><line x1="0" y1="608" x2="76" y2="684"></line><line x1="76" y1="608" x2="152" y2="684"></line><line x1="152" y1="608" x2="228" y2="684"></line><line x1="228" y1="608" x2="304" y2="684"></line><line x1="304" y1="608" x2="380" y2="684"></line><line x1="380" y1="608" x2="456" y2="684"></line><line x1="456" y1="608" x2="532" y2="684"></line><line x1="532" y1="608" x2="608" y2="684"></line><line x1="684" y1="608" x2="608" y2="684"></line><line x1="760" y1="608" x2="684" y2="684"></line><line x1="760" y1="608" x2="836" y2="684"></line><line x1="912" y1="608" x2="836" y2="684"></line><line x1="988" y1="608" x2="912" y2="684"></line><line x1="988" y1="608" x2="1064" y2="684"></line><line x1="1140" y1="608" x2="1064" y2="684"></line><line x1="1140" y1="608" x2="1216" y2="684"></line><line x1="1216" y1="608" x2="1292" y2="684"></line><line x1="1292" y1="608" x2="1368" y2="684"></line><line x1="1368" y1="608" x2="1444" y2="684"></line><line x1="76" y1="684" x2="0" y2="760"></line><line x1="76" y1="684" x2="152" y2="760"></line><line x1="228" y1="684" x2="152" y2="760"></line><line x1="228" y1="684" x2="304" y2="760"></line><line x1="380" y1="684" x2="304" y2="760"></line><line x1="380" y1="684" x2="456" y2="760"></line><line x1="456" y1="684" x2="532" y2="760"></line><line x1="532" y1="684" x2="608" y2="760"></line><line x1="608" y1="684" x2="684" y2="760"></line><line x1="760" y1="684" x2="684" y2="760"></line><line x1="836" y1="684" x2="760" y2="760"></line><line x1="912" y1="684" x2="836" y2="760"></line><line x1="912" y1="684" x2="988" y2="760"></line><line x1="988" y1="684" x2="1064" y2="760"></line><line x1="1064" y1="684" x2="1140" y2="760"></line><line x1="1140" y1="684" x2="1216" y2="760"></line><line x1="1292" y1="684" x2="1216" y2="760"></line><line x1="1368" y1="684" x2="1292" y2="760"></line><line x1="1368" y1="684" x2="1444" y2="760"></line><line x1="76" y1="760" x2="0" y2="836"></line><line x1="152" y1="760" x2="76" y2="836"></line><line x1="152" y1="760" x2="228" y2="836"></line><line x1="228" y1="760" x2="304" y2="836"></line><line x1="304" y1="760" x2="380" y2="836"></line><line x1="380" y1="760" x2="456" y2="836"></line><line x1="456" y1="760" x2="532" y2="836"></line><line x1="532" y1="760" x2="608" y2="836"></line><line x1="608" y1="760" x2="684" y2="836"></line><line x1="684" y1="760" x2="760" y2="836"></line><line x1="836" y1="760" x2="760" y2="836"></line><line x1="912" y1="760" x2="836" y2="836"></line><line x1="912" y1="760" x2="988" y2="836"></line><line x1="988" y1="760" x2="1064" y2="836"></line><line x1="1064" y1="760" x2="1140" y2="836"></line><line x1="1216" y1="760" x2="1140" y2="836"></line><line x1="1292" y1="760" x2="1216" y2="836"></line><line x1="1292" y1="760" x2="1368" y2="836"></line><line x1="1444" y1="760" x2="1368" y2="836"></line></g></svg>