<svg id="visual" viewBox="0 0 900 600" width="900" height="600" xmlns="http://www.w3.org/2000/svg" xmlns:xlink="http://www.w3.org/1999/xlink" version="1.1"><rect x="0" y="0" width="900" height="600" fill="#0d77b1"></rect><path d="M0 516L37.5 502.2C75 488.3 150 460.7 225 443C300 425.3 375 417.7 450 422.5C525 427.3 600 444.7 675 439.7C750 434.7 825 407.3 862.5 393.7L900 380L900 601L862.5 601C825 601 750 601 675 601C600 601 525 601 450 601C375 601 300 601 225 601C150 601 75 601 37.5 601L0 601Z" fill="#fff" stroke-linecap="round" stroke-linejoin="miter"></path></svg>