<svg id="visual" viewBox="0 0 1200 450" width="1200" height="450" xmlns="http://www.w3.org/2000/svg" xmlns:xlink="http://www.w3.org/1999/xlink" version="1.1"><rect x="0" y="0" width="1200" height="450" fill="#50bad7"></rect><path d="M0 353L28.5 339.2C57 325.3 114 297.7 171.2 302.7C228.3 307.7 285.7 345.3 342.8 359.8C400 374.3 457 365.7 514.2 347.2C571.3 328.7 628.7 300.3 685.8 305.2C743 310 800 348 857.2 366.7C914.3 385.3 971.7 384.7 1028.8 365.5C1086 346.3 1143 308.7 1171.5 289.8L1200 271L1200 451L1171.5 451C1143 451 1086 451 1028.8 451C971.7 451 914.3 451 857.2 451C800 451 743 451 685.8 451C628.7 451 571.3 451 514.2 451C457 451 400 451 342.8 451C285.7 451 228.3 451 171.2 451C114 451 57 451 28.5 451L0 451Z" fill="#FFFFFF" stroke-linecap="round" stroke-linejoin="miter"></path></svg>